<svg id="Layer_1" data-name="Layer 1" xmlns="http://www.w3.org/2000/svg" viewBox="0 0 1000 1000"><defs><style>.cls-1{fill:#46a2da;}.cls-2{fill:#3abeee;}.cls-3{fill:#f6eb2e;}.cls-4{fill:#ef484a;}</style></defs><path class="cls-1" d="M778.33,208.06C771.14,137,711,81.37,638.05,81.37A140,140,0,0,0,572.1,97.7,161.81,161.81,0,0,0,446.22,36.93c-72.55,0-136.12,49.6-155.1,118.13h-.79c-100.71,0-182.64,81.93-182.64,182.64s81.93,182.66,182.64,182.66l.88,0v0h80.85l14-42H303.36c-1.86,0-3.7-.06-5.55-.14l-.89,0-.9,0c-1.89.08-3.78.15-5.69.15-77.57,0-140.68-63.11-140.68-140.69S212.76,197,290.33,197a143,143,0,0,1,15.3.84l20,2.16,3-19.93c8.62-57.69,59.16-101.2,117.59-101.2a118.07,118.07,0,0,1,102.13,58l11.92,19.94,18.63-13.89a99.05,99.05,0,0,1,158.19,79.45l-.38,19.75,17.49,3.23a117.5,117.5,0,0,1-21.51,233H665.52l-14,42h81.18c87.94,0,159.48-71.55,159.48-159.48A159.44,159.44,0,0,0,778.33,208.06"/><polygon class="cls-2" points="467.9 965.86 415.78 950.25 478.51 740.77 331.33 740.77 439.49 403.48 491.3 420.09 405.91 686.37 551.6 686.37 467.9 965.86"/><polygon class="cls-3" points="573.62 890.59 521.51 874.99 584.24 665.5 437.06 665.5 545.22 328.21 597.02 344.82 511.63 611.1 657.32 611.1 573.62 890.59"/><polygon class="cls-4" points="676.66 814.82 624.54 799.21 687.27 589.73 540.09 589.73 648.25 252.43 700.05 269.04 614.66 535.33 760.35 535.33 676.66 814.82"/></svg>