<svg id="Layer_1" data-name="Layer 1" xmlns="http://www.w3.org/2000/svg" viewBox="0 0 1024 1024"><defs><style>.cls-1{fill:#fff;}.cls-2,.cls-3{fill:none;stroke-miterlimit:10;stroke-width:60px;}.cls-2{stroke:#ee453b;}.cls-3{stroke:#3372b8;}.cls-4{fill:#ccebfb;}</style></defs><title>explore-icons</title><path class="cls-1" d="M419.35,209h183.9c61,0,91.47,0,124.3,10.38a129,129,0,0,1,77.12,77.12C815,329.27,815,359.77,815,420.75v183.9c0,61,0,91.47-10.38,124.3a129,129,0,0,1-77.12,77.11c-32.83,10.38-63.32,10.38-124.3,10.38H419.35c-61,0-91.48,0-124.3-10.38A129,129,0,0,1,217.93,729c-10.38-32.83-10.38-63.32-10.38-124.3V420.75c0-61,0-91.48,10.38-124.3A129,129,0,0,1,295,219.33C327.87,209,358.36,209,419.35,209h0"/><line class="cls-2" x1="798.88" y1="225.13" x2="225.13" y2="798.88"/><path class="cls-3" d="M264.15,842.12s88.35-553,247.37-553,248.34,553,248.34,553"/><path class="cls-4" d="M859.7,255.7a152.92,152.92,0,0,0-91.4-91.4C729.39,152,693.26,152,621,152H403c-72.28,0-108.42,0-147.32,12.3a152.92,152.92,0,0,0-91.4,91.4C152,294.6,152,330.75,152,403V621c0,72.28,0,108.41,12.3,147.32a152.89,152.89,0,0,0,91.4,91.39C294.6,872,330.74,872,403,872H621c72.28,0,108.41,0,147.32-12.31a152.89,152.89,0,0,0,91.4-91.39C872,729.39,872,693.26,872,621V403C872,330.75,872,294.6,859.7,255.7ZM815,604.65c0,61,0,91.48-10.38,124.3a129,129,0,0,1-77.12,77.12c-32.83,10.38-63.32,10.38-124.3,10.38H419.35c-61,0-91.47,0-124.3-10.38A129,129,0,0,1,217.93,729c-10.38-32.83-10.38-63.32-10.38-124.3V420.75c0-61,0-91.47,10.38-124.3A129,129,0,0,1,295,219.34C327.87,209,358.36,209,419.35,209h183.9c61,0,91.48,0,124.3,10.38a129,129,0,0,1,77.12,77.11C815,329.28,815,359.76,815,420.75Z"/></svg>