<?xml version="1.0" encoding="UTF-8" standalone="no"?>
<!DOCTYPE svg PUBLIC "-//W3C//DTD SVG 1.1//EN" "http://www.w3.org/Graphics/SVG/1.1/DTD/svg11.dtd">
<svg width="100%" height="100%" viewBox="0 0 1024 1024" version="1.1" xmlns="http://www.w3.org/2000/svg" xmlns:xlink="http://www.w3.org/1999/xlink" xml:space="preserve" xmlns:serif="http://www.serif.com/" style="fill-rule:evenodd;clip-rule:evenodd;stroke-linecap:round;stroke-linejoin:round;stroke-miterlimit:1.5;">
    <g id="kosmos" transform="matrix(0.533333,0,0,0.948148,0,0)">
        <rect x="0" y="0" width="1920" height="1080" style="fill:none;"/>
        <g transform="matrix(2.94999,0.183971,-0.246143,1.24883,-156.705,-112.533)">
            <path d="M279.138,385.169C279.138,385.169 321.756,352.828 353.551,396.98L341.519,564.945C341.519,564.945 292.284,590.771 266.777,555.431L279.138,385.169Z" style="fill:rgb(213,213,213);"/>
        </g>
        <g transform="matrix(1.66006,0.103527,-0.184048,0.933785,435.021,-38.9193)">
            <path d="M332.259,707.734C332.259,707.734 436.823,651.676 490.179,766.802C490.179,766.802 598.049,709.787 673.517,746.988C696.567,758.351 619.739,854.272 546.748,835.683C546.748,835.683 482.452,814.509 437.088,855.049C391.724,895.589 278.859,887.481 259.541,842.652C240.224,797.822 332.259,707.734 332.259,707.734Z" style="fill:rgb(142,221,135);"/>
        </g>
        <g transform="matrix(2.21372,0.138055,-0.245431,1.24522,334.125,-254.728)">
            <path d="M335.518,582.191C335.518,582.191 414.143,535.628 448.726,537.644C448.726,537.644 585.498,627.624 549.702,724.845C538.204,756.072 424.716,702.446 437.57,618.948C437.57,618.948 376.977,636.81 346.558,630.71C316.139,624.61 335.518,582.191 335.518,582.191Z" style="fill:rgb(142,221,135);"/>
        </g>
        <g transform="matrix(2.50429,-0.422479,0.751073,1.40866,-426.024,-220.414)">
            <path d="M226.653,722.145C226.653,722.145 196.839,681.088 142.589,713.623C142.589,713.623 164.57,711.42 174.561,723.349C174.561,723.349 135.983,715.783 121.893,810.312C111,883.393 62.491,876.275 62.491,876.275C62.491,876.275 92.097,968.476 150.103,885.248C150.103,885.248 147.247,903.836 136.411,911.521C136.411,911.521 217.647,938.941 203.975,812.498C194.142,721.558 225.495,740.112 225.495,740.112L226.653,722.145Z" style="fill:rgb(17,0,156);"/>
        </g>
        <g transform="matrix(1.66006,0.103527,-0.184048,0.933785,435.021,-38.9193)">
            <circle cx="373.272" cy="344.856" r="162.741" style="fill:rgb(159,255,150);"/>
        </g>
        <g transform="matrix(1.62976,-0.205578,0.365472,0.916739,272.676,81.3018)">
            <path d="M505.332,317.995C505.332,317.995 518.313,406.291 563.718,439.174C572.638,445.634 520.74,541.826 473.03,523.56C425.32,505.293 319.173,512.534 302.039,490.242C284.904,467.95 339.752,263.741 505.332,317.995Z" style="fill:rgb(159,255,150);"/>
        </g>
        <g transform="matrix(2.22015,0.138456,-0.246143,1.24883,62.4199,-97.8905)">
            <g transform="matrix(0.747727,0,0,0.747727,170.961,28.2669)">
                <path d="M246.462,441.036C246.462,441.036 271.735,517.208 253.84,588.434C235.944,659.661 156.902,841.459 310.693,883.525C464.484,925.591 455.15,759.086 405.874,644.675C368.488,557.873 416.544,493.821 416.544,493.821C416.544,493.821 347.908,339.382 246.462,441.036Z" style="fill:rgb(159,255,150);"/>
            </g>
            <g transform="matrix(0.747727,0,0,0.747727,167.961,28.2669)">
                <path d="M340.527,739.234C340.527,739.234 442.117,743.237 463.087,872.187C463.087,872.187 631.975,955.812 637.365,1049.13C639.071,1078.68 493.902,1050.27 463.388,1008.61C463.388,1008.61 428.829,926.214 352.158,905.351C275.487,884.488 258.488,876.686 231.792,813.52C205.096,750.354 340.527,739.234 340.527,739.234Z" style="fill:rgb(159,255,150);"/>
            </g>
        </g>
        <g transform="matrix(1.66006,0.103527,-0.184048,0.933785,435.021,-38.9193)">
            <path d="M337.696,162.907C337.696,162.907 372.28,121.466 444.726,114.846C444.726,114.846 419.71,129.757 418.101,146.257C418.101,146.257 524.418,89.971 557.765,176.63C591.556,264.44 667.17,286.517 667.17,286.517C667.17,286.517 537.157,330.437 456.968,285.748C376.779,241.058 377.674,220.242 377.674,220.242C377.674,220.242 375.752,254.664 390.481,265.247C390.481,265.247 335.982,267.68 318.351,198.053C300.72,128.427 337.696,162.907 337.696,162.907Z" style="fill:rgb(17,0,156);"/>
        </g>
        <g transform="matrix(1.66006,0.103527,-0.184048,0.933785,435.021,-38.9193)">
            <path d="M215.331,340.062C215.331,340.062 186.248,206.933 265.569,146.568C355.836,77.873 376.847,118.388 322.287,209.307" style="fill:rgb(159,255,150);"/>
        </g>
        <g transform="matrix(2.22015,0.138456,-0.246143,1.24883,62.4199,-97.8905)">
            <path d="M441.829,170.025C493.315,194.267 579.509,215.329 662.403,213.729C662.403,213.729 644.823,119.239 540.457,96.033C436.091,72.827 326.379,147.1 308.276,241.297C289.738,337.764 358.657,429.473 451.526,444.717C544.395,459.961 610.509,408.576 610.509,408.576C610.509,408.576 469.849,420.342 406.682,363.79C406.682,363.79 389.654,240.852 441.829,170.025Z" style="fill:rgb(213,213,213);"/>
        </g>
        <g transform="matrix(2.5307,0.157823,-0.280573,1.42352,-68.1821,-151.242)">
            <path d="M440.264,164.945C440.264,164.945 465.275,87.561 430.14,76.292C395.004,65.024 301.445,143.963 324.857,255.649" style="fill:rgb(213,213,213);"/>
        </g>
        <g transform="matrix(2.22015,0.138456,-0.246143,1.24883,62.4199,-97.8905)">
            <path d="M218.824,284.775C220.476,272.831 227.962,261.624 238.971,254.732C248.718,248.631 259.547,245.771 270.512,242.857C288.216,238.152 305.395,234.598 323.749,235.816C328.155,236.108 331.494,239.923 331.202,244.328C330.909,248.734 327.095,252.073 322.689,251.781C306.109,250.68 290.614,254.07 274.621,258.321C265.207,260.822 255.828,263.056 247.461,268.294C245.189,269.716 243.127,271.436 241.348,273.371C246.831,272.841 252.309,273.777 257.752,275.691C262.861,277.488 268.201,279.58 272.841,282.401C275.642,284.104 278.189,286.13 280.349,288.608C286.119,295.225 287.312,301.45 286.233,306.581C284.723,313.769 277.855,320.139 267.101,322.946C251.703,326.966 234.858,324.025 225.137,310.319C224.491,309.408 223.895,308.486 223.347,307.551C219.487,317.465 218.905,328.815 223.691,337.518C233.551,329.127 247.342,326.635 260.536,328.215C265.089,328.761 272.923,330.705 277.933,334.411C283.197,338.304 286.006,343.734 284.315,350.683C283.01,356.045 278.938,360.576 274.69,363.811C268.533,368.499 261.266,370.245 253.739,369.95C247.334,369.699 240.728,367.905 234.722,365.482L235.593,366.312C239.951,370.487 245.536,372.705 250.99,375.087C261.106,379.506 270.925,383.13 281.82,385.17C286.16,385.982 289.024,390.165 288.211,394.505C287.399,398.845 283.216,401.709 278.876,400.896C266.765,398.629 255.831,394.661 244.586,389.75C237.41,386.616 230.258,383.359 224.525,377.866C220.913,374.407 216.495,369.996 214.315,365.15C212.361,360.803 211.847,356.132 213.756,351.217C200.584,334.827 202.276,309.723 213.515,291.541C215.021,289.105 216.809,286.834 218.824,284.775ZM268.569,347.489C267.933,347.06 266.652,346.234 265.74,345.87C263.217,344.862 260.473,344.322 258.633,344.102C250.646,343.145 242.067,343.989 235.732,348.405C240.299,350.71 245.639,352.802 251.005,353.63C255.955,354.394 260.974,354.144 264.996,351.082C266.304,350.085 267.915,349.02 268.569,347.489ZM234.679,292.366C235.094,295.341 236.22,298.289 238.187,301.062C243.885,309.095 254.035,309.821 263.06,307.465C265.111,306.929 266.941,306.232 268.428,305.327C269.425,304.721 270.382,304.21 270.575,303.291C270.847,302.001 269.74,300.786 268.289,299.122C267.216,297.891 265.921,296.919 264.529,296.073C260.822,293.819 256.524,292.22 252.443,290.784C247.956,289.206 243.433,288.504 238.913,290.234C237.439,290.797 236.018,291.515 234.679,292.366Z" style="fill:rgb(213,213,213);"/>
        </g>
        <g transform="matrix(2.07285,0.468238,-0.832423,1.16598,364.204,-243.689)">
            <ellipse cx="505.413" cy="299.82" rx="18.172" ry="31.632" style="fill:rgb(8,0,76);"/>
        </g>
        <g transform="matrix(2.22015,0.138456,-0.246143,1.24883,62.4199,-97.8905)">
            <path d="M569.324,137.001C569.324,137.001 654.661,44.603 669.413,54.287C684.164,63.97 618.915,166.126 618.915,166.126C618.915,166.126 576.037,182.234 569.324,137.001Z" style="fill:rgb(213,213,213);stroke:rgb(213,213,213);stroke-width:0.84px;"/>
        </g>
        <g transform="matrix(2.21372,0.138055,-0.245431,1.24522,348.942,-215.879)">
            <path d="M315.727,596.624C315.727,596.624 393.123,531.381 416.385,528.987C428.978,527.691 522.845,625.189 470.926,728.192C457.838,754.158 380.637,698.989 402.782,616.164C402.782,616.164 339.583,639.758 324.291,634.284C308.998,628.81 315.727,596.624 315.727,596.624Z" style="fill:rgb(159,255,150);"/>
        </g>
    </g>
</svg>
