<?xml version="1.0" encoding="UTF-8" standalone="no"?>
<!DOCTYPE svg PUBLIC "-//W3C//DTD SVG 1.1//EN" "http://www.w3.org/Graphics/SVG/1.1/DTD/svg11.dtd">
<svg width="100%" height="100%" viewBox="0 0 256 256" version="1.1" xmlns="http://www.w3.org/2000/svg" xmlns:xlink="http://www.w3.org/1999/xlink" xml:space="preserve" xmlns:serif="http://www.serif.com/" style="fill-rule:evenodd;clip-rule:evenodd;stroke-linejoin:round;stroke-miterlimit:2;">
    <g transform="matrix(1,0,0,1,-1260.37,-282.516)">
        <g id="nbody" transform="matrix(0.5,0,0,0.5,1260.37,282.516)">
            <rect x="0" y="0" width="512" height="512" style="fill:none;"/>
            <g transform="matrix(2,0,0,2,-2520.73,-565.032)">
                <path d="M1346.77,478.224C1327.92,488.808 1303.59,485.61 1288.19,469.123C1270.11,449.763 1271.14,419.364 1290.5,401.28C1299.86,392.541 1311.8,388.267 1323.68,388.369C1323.33,395.436 1323.17,402.32 1323.21,409.02C1323.26,418.931 1324.27,428.351 1326.21,437.282C1328.22,446.551 1331.48,455.268 1335.99,463.436C1338.89,468.688 1342.47,473.622 1346.77,478.224Z" style="fill:rgb(255,245,145);"/>
            </g>
            <g transform="matrix(0.918537,-0.857974,0.857974,0.918537,151.074,328.024)">
                <circle cx="64.926" cy="192.991" r="38.189" style="fill:rgb(243,85,136);"/>
            </g>
            <g transform="matrix(2,0,0,2,-2520.73,-565.032)">
                <path d="M1478.26,491.899C1494.07,498.302 1497.51,487.837 1497.15,482.633C1496.22,475.827 1492.06,469.407 1484.66,463.374C1481.17,460.523 1477.31,457.703 1473.1,454.915C1468.89,452.127 1464.27,449.233 1459.23,446.234C1456.95,450.859 1454.05,455.338 1450.51,459.674C1444.16,467.456 1437.36,473.853 1430.12,478.864C1422.87,483.875 1415.4,487.271 1407.71,489.052C1400.02,490.833 1392.32,490.845 1384.6,489.088C1376.89,487.331 1369.43,483.52 1362.25,477.655C1355.15,471.871 1349.61,465.36 1345.62,458.123C1341.63,450.886 1338.74,443.161 1336.96,434.948C1335.17,426.736 1334.26,418.073 1334.21,408.96C1334.16,399.847 1334.48,390.385 1335.16,380.575C1327.38,376.451 1319.6,371.308 1311.82,365.146C1298.64,354.393 1289.82,343.494 1285.36,332.448C1280.59,321.158 1281.34,311.678 1287.6,304.007C1291.95,298.671 1298.14,296.542 1306.16,297.621C1314.17,298.7 1323.28,303.394 1333.46,311.704C1346.44,322.294 1354.49,334.965 1357.59,349.715C1358.6,354.797 1359.34,360.213 1359.8,365.963C1360.27,371.712 1360.37,377.906 1360.11,384.545C1369.15,388.957 1378.6,393.888 1388.46,399.338C1396.89,388.999 1406.64,382.968 1417.69,381.245C1428.93,379.493 1439.35,382.527 1448.93,390.347C1456.62,396.62 1461.51,404.081 1463.61,412.731C1465.7,421.38 1465.18,430.266 1462.07,439.387C1467.4,442.438 1472.29,445.459 1476.75,448.451C1481.21,451.443 1485.34,454.486 1489.14,457.582C1498.56,465.266 1503.66,473.256 1504.44,481.554L1504.49,481.55C1504.51,481.931 1504.38,486.788 1503.94,488.459C1501.14,502.121 1489.31,511.527 1480.66,516.722C1483.04,508.55 1482.27,499.623 1478.26,491.899ZM1429.2,429.519C1420.82,424.714 1412.44,420.101 1404.07,415.681C1399.9,420.794 1397.83,426.187 1397.86,431.859C1397.89,437.531 1400.3,442.322 1405.09,446.232C1408.19,448.757 1411.64,450.136 1415.44,450.368C1419.24,450.6 1423.11,449.73 1427.05,447.758C1427.79,449.098 1428.42,450.261 1428.94,451.247C1423.66,455.272 1417.63,457.571 1410.84,458.144C1404.06,458.717 1397.32,456.274 1390.62,450.816C1383.34,444.869 1379.45,436.887 1378.97,426.87C1378.81,419.328 1380.62,412.107 1384.42,405.207C1372.81,399.255 1364.55,395.108 1359.64,392.769C1359.22,400.015 1359.03,407.224 1359.09,414.396C1359.14,421.569 1359.76,428.411 1360.93,434.923C1362.1,441.435 1364.07,447.484 1366.83,453.07C1369.59,458.655 1373.52,463.525 1378.62,467.68C1384.31,472.323 1390.09,475.279 1395.95,476.548C1401.82,477.816 1407.62,477.688 1413.36,476.164C1419.09,474.639 1424.65,471.905 1430.03,467.961C1435.41,464.018 1440.45,459.155 1445.17,453.375C1448.16,449.706 1450.48,446.045 1452.13,442.392C1444.55,438.238 1436.9,433.947 1429.2,429.519ZM1444.48,405.597C1441.68,403.316 1438.61,401.781 1435.26,400.994C1431.91,400.206 1428.62,400.064 1425.38,400.569C1422.14,401.074 1419.05,402.163 1416.1,403.834C1413.16,405.506 1410.64,407.621 1408.56,410.178C1414.16,412.895 1420.95,416.493 1428.94,420.973C1436.24,425.075 1444.73,429.962 1454.4,435.634C1456.01,428.98 1455.68,423.064 1453.41,417.885C1451.15,412.707 1448.17,408.611 1444.48,405.597ZM1336.45,371.35C1337.83,358.035 1337.41,347.185 1335.18,338.798C1332.96,330.412 1328.95,323.856 1323.16,319.131C1320.37,316.85 1317.33,315.577 1314.05,315.312C1310.78,315.046 1308.01,316.303 1305.74,319.082C1301.48,324.307 1301.42,331.205 1305.57,339.776C1309.53,348.184 1316.24,356.257 1325.73,363.997C1328.83,366.522 1332.4,368.973 1336.45,371.35Z" style="fill:white;fill-rule:nonzero;"/>
            </g>
            <g transform="matrix(1.22472,-1.14397,1.14397,1.22472,85.9551,-62.3367)">
                <circle cx="64.926" cy="192.991" r="38.189" style="fill:rgb(163,247,191);"/>
            </g>
        </g>
    </g>
</svg>
