<?xml version="1.0" encoding="UTF-8" standalone="no"?>
<!DOCTYPE svg PUBLIC "-//W3C//DTD SVG 1.1//EN" "http://www.w3.org/Graphics/SVG/1.1/DTD/svg11.dtd">
<svg width="100%" height="100%" viewBox="0 0 441 701" version="1.1" xmlns="http://www.w3.org/2000/svg" xmlns:xlink="http://www.w3.org/1999/xlink" xml:space="preserve" xmlns:serif="http://www.serif.com/" style="fill-rule:evenodd;clip-rule:evenodd;stroke-linejoin:round;stroke-miterlimit:2;">
    <g transform="matrix(1,0,0,1,-1192,-158)">
        <g id="pistachio" transform="matrix(0.429688,0,0,0.683594,731.231,158.912)">
            <rect x="1074" y="0" width="1024" height="1024" style="fill:none;"/>
            <g transform="matrix(2.83393,0.477306,-0.75935,1.78133,-1403.69,-1277.33)">
                <path d="M1201.9,805.997C1201.9,805.997 1186.61,857.043 1218.77,891.013C1218.77,891.013 1208.48,915.116 1190.73,916.316C1190.73,916.316 1174.79,889.731 1208.01,886.449C1208.01,886.449 1182.09,858.128 1197.76,804.838L1201.9,805.997Z" style="fill:white;"/>
            </g>
            <g transform="matrix(2.9339,0,0,1.84417,-1958.35,-719.714)">
                <path d="M1194.44,808.126C1194.44,808.126 1186.9,858.286 1211.34,893.736C1211.34,893.736 1184.47,899.224 1194.9,924.064C1194.9,924.064 1220.24,919.411 1226.07,900.366C1226.07,900.366 1192.18,884.105 1197.85,809.097L1194.44,808.126Z" style="fill:white;"/>
            </g>
            <g transform="matrix(3.2249,0.543154,-0.75935,1.78133,-1845.84,-1316.94)">
                <path d="M1216.35,802.317C1216.35,802.317 1035.26,648.769 1220.63,397.557C1220.63,397.557 1432.8,652.588 1216.35,802.317Z" style="fill:rgb(0,172,34);"/>
            </g>
            <g transform="matrix(2.83393,0.477306,-0.75935,1.78133,-1366.75,-1236.25)">
                <path d="M1198.68,760.693C1198.68,760.693 1221.56,615.918 1130.99,501.178C1130.99,501.178 1013.99,762.253 1214.11,814.535C1214.11,814.535 1436.79,783.313 1310.97,508.48C1310.97,508.48 1223.81,552.634 1198.68,760.693Z" style="fill:rgb(255,248,176);"/>
            </g>
            <g transform="matrix(2.83393,0.477306,-0.75935,1.78133,-1396.09,-1291.58)">
                <ellipse cx="1180.26" cy="733.099" rx="9.607" ry="18.102" style="fill:rgb(35,35,35);"/>
            </g>
            <g transform="matrix(2.83393,0.477306,-0.75935,1.78133,-1195.43,-1257.78)">
                <ellipse cx="1180.26" cy="733.099" rx="9.607" ry="18.102" style="fill:rgb(35,35,35);"/>
            </g>
            <g transform="matrix(2.58853,-0.868087,1.38105,1.62708,-2186.62,469.793)">
                <path d="M1133.88,763.3C1133.88,763.3 1127.92,787.447 1119.56,806.234C1110.8,825.914 1103.24,836.593 1082.21,838.442C1061.19,840.29 1060.14,809.374 1078.66,811.146C1097.19,812.919 1090.2,830.808 1090.2,830.808C1090.2,830.808 1097.04,831.527 1102.52,825.8C1111.37,816.541 1118.03,798.224 1129.91,759.755L1133.88,763.3Z" style="fill:white;"/>
            </g>
            <g transform="matrix(3.22507,0,0,2.02719,-2306.9,-832.124)">
                <path d="M1098.39,709.414C1098.39,709.414 1067.8,728.535 1065.08,760.105C1062.36,791.675 1081.9,804.322 1093.28,802.145C1113.12,798.35 1091.57,760.82 1074.95,789.084C1074.95,789.084 1050.62,754.56 1099.34,714.47L1098.39,709.414Z" style="fill:white;"/>
            </g>
        </g>
    </g>
</svg>
