<svg id="Layer_1" data-name="Layer 1" xmlns="http://www.w3.org/2000/svg" viewBox="0 0 1024 1024"><defs><style>.cls-1{fill:red;}.cls-2{fill:#0080ff;}.cls-3{fill:#fff;}.cls-4{fill:#ff0;}</style></defs><title>explore-icons</title><g id="mCyWtX.tif"><path class="cls-1" d="M98.09,652.24v-3.43c.44-2.6.27-5.24.5-7.86a113.7,113.7,0,0,1,10.72-39.47c6.12-12.77,15-23.44,24.8-33.39,10.22-10.37,21.66-19.26,33-28.31,9.85-7.89,19.65-15.83,28-25.41,12.47-14.23,17.74-30.91,16.43-49.81a128,128,0,0,0-6.49-31,47.18,47.18,0,0,1-2.1-6.68h.67c.55.39,1.08.82,1.65,1.18a172.62,172.62,0,0,1,14.65,10.1c12.74,9.87,23.83,21.26,31.65,35.65,7.55,13.91,11,28.77,9.05,44.63a67,67,0,0,1-18.07,39.05,38.24,38.24,0,0,0-7.63,10.81,22.19,22.19,0,0,0-1.65,13.41c2.06,10.53,13,18.05,24,16.74,14.75-1.74,25.72-16,24-31.06a82.94,82.94,0,0,1,.77-24.95c4.19-22.06,18.57-30.8,37-32.86,1.33-.15,1.6.34,1,1.56-1,2.11-2,4.22-2.89,6.39-3.82,9.48-5.11,19.17-2.18,29.17a68.58,68.58,0,0,0,7.51,16.07c4.65,7.7,9.75,15.12,13.93,23.11a86.83,86.83,0,0,1,10.17,37,120.94,120.94,0,0,1-9.85,52.65,115.47,115.47,0,0,1-31.6,43.48c-15,12.84-32.38,20.86-51.43,25.21a25.63,25.63,0,0,1-5.47,1c.29-.82,1-.92,1.48-1.2a46.57,46.57,0,0,0,8.94-6.41c12.57-11.39,15.44-34.78,8.42-49.33-6-12.36-15.71-18.74-29.31-18.82a41.11,41.11,0,0,0-13.21,2.38,35.1,35.1,0,0,1-16.1,1.89c-12-1.69-19.87-8.79-24.51-19.82-4.4-10.45-4.51-21.35-2.55-32.36.53-3,1.26-6,2-9.33a78.39,78.39,0,0,0-8.53,8.72c-18.49,21.91-26.87,47-22,75.82,3.88,22.92,15.53,40.82,35.43,52.78.46.27,1.08.37,1.24,1-.4.35-.78.06-1.13,0a163.52,163.52,0,0,1-27.71-9.07c-14.46-6.32-27.54-14.74-38.31-26.57-13.38-14.7-21.08-32.09-23.5-52C98.49,659.42,98.47,655.82,98.09,652.24Z"/></g><g id="AdTWqb.tif"><path class="cls-2" d="M833.07,756.71H815.42a7.4,7.4,0,0,0-.91-.18,94.36,94.36,0,0,1-33.72-9.12,103.32,103.32,0,0,1-34.16-26.92A94.85,94.85,0,0,1,725,674c-.54-3.24-.86-6.52-1.28-9.79q0-7.62,0-15.24c.18-1.81.34-3.63.56-5.44A95.67,95.67,0,0,1,741,599.23c3.7-5.27,8.17-9.89,12.1-15,11.71-15.14,21.64-31.27,28.1-49.41a114,114,0,0,0,6.53-48.37,117.46,117.46,0,0,0-10.11-37.93c-2.37-5.34-5.27-10.42-7.7-15.72h1.34c.58.23,1.14.5,1.74.68,3.54,1.06,7.11,2,10.63,3.16,28.71,9.17,52.66,25.51,72.5,48.07a223.54,223.54,0,0,1,30.56,45.49c11.89,23,20.65,47.25,27.43,72.22,1.78,6.58,3,13.32,5.19,19.77a108.44,108.44,0,0,1,5.29,41.88,95.29,95.29,0,0,1-7.24,31c-7.58,18-19.71,32.39-35.46,43.8a94.4,94.4,0,0,1-38.55,16.38C840,755.9,836.51,756.25,833.07,756.71Z"/></g><g id="cWVUEX.tif"><path class="cls-3" d="M710.75,373.25c-4.34-.41-8.7-.71-13-1.25-19.2-2.41-37.19-8.17-52.88-19.88-18.65-13.91-29.71-32.51-32.78-55.5-3-22.25.16-43.82,10-64.11,12.49-25.76,33-42.19,60.32-50.19A108.82,108.82,0,0,1,717.76,178c25.59,1.1,46.48,16.92,52.21,44.75,1.67,8.09,2.48,16.29,1.18,24.52-2.27,14.37-10.08,24.8-23,31.32s-26.66,7.91-40.73,6.21c-9.62-1.16-16.11-9.47-15.9-19.2.19-9,7.39-16.72,16.71-17.93a20.24,20.24,0,0,1,4.2-.08A41.75,41.75,0,0,0,728.48,246c4.12-1.32,4.89-2.49,4.9-6.78a37.4,37.4,0,0,0-2.29-13.73c-2.26-5.85-6.66-9.26-12.76-9.59-17.68-1-34.05,2.83-47.93,14.53a55,55,0,0,0-16,23.18A77.13,77.13,0,0,0,650,291.89c2.42,17.33,12.49,29.07,28.16,36.21,10.4,4.74,21.46,6.73,32.8,7.24,16.43.73,32.59-.87,48.22-6.28,20.81-7.2,37.75-19.39,48.9-38.77a87.54,87.54,0,0,0,11.2-38.07A143.27,143.27,0,0,0,812,195.28c-5.27-15.45-13.38-29.23-25-40.75-12-11.87-26.39-19.76-42.54-24.48-17.87-5.22-36.14-6.42-54.6-5-37.23,2.79-69.32,17.63-97.27,41.94a166.51,166.51,0,0,0-23.84,25.42c-5,6.6-11.83,9.15-19.87,7.21-7.82-1.89-12.65-7.06-14.36-15-.09-.43-.23-.86-.35-1.28v-4A25,25,0,0,1,539,168.69a188.5,188.5,0,0,1,14.91-17.34,216.62,216.62,0,0,1,69.81-48.45,193.41,193.41,0,0,1,57.14-15c4.48-.46,9-.8,13.46-1.2h16.46a17.07,17.07,0,0,0,2,.3,171.14,171.14,0,0,1,51.72,9.89c22.39,8.12,41.65,20.92,57.11,39.1,21.06,24.75,31.69,53.86,35.22,85.83.54,4.92.83,9.87,1.24,14.81v12.46a15.55,15.55,0,0,0-.3,2,120.54,120.54,0,0,1-2.29,19.39c-5.2,26.85-17.61,49.74-38.1,67.94-22.36,19.86-49,30-78.42,33.58-4.47.54-9,.84-13.46,1.25Z"/></g><g id="vkWsLV.tif"><path class="cls-4" d="M382,68.07c-1.9,5.58-3.77,11.16-5.69,16.72Q361.18,128.72,346,172.63q-4.94,14.28-9.88,28.55c-.6,1.73-.55,1.83,1.27,1.83h85.14c.31,0,.63,0,.94,0s1-.18,1.23.3-.27.81-.54,1.14q-7.44,9.08-14.89,18.14l-30.41,37-34.51,42-48,58.48L271,390.93a9.87,9.87,0,0,0-.65,1h-.54c.68-2,1.35-4.1,2.05-6.13q9.72-28.17,19.46-56.33l24.27-70.22c.79-2.27.77-2.28-1.6-2.28h-84.7a5.5,5.5,0,0,1-2.39-.25v-.27l40.27-49,31.43-38.25,43.26-52.62q17.13-20.84,34.25-41.69a79.54,79.54,0,0,0,5.44-6.85Z"/></g><rect x="399.7" y="890.57" width="163.74" height="81.87"/><rect x="579.81" y="890.57" width="81.87" height="81.87"/><rect x="497.95" y="710.46" width="163.74" height="163.74" transform="translate(1159.63 1584.65) rotate(180)"/><rect x="399.7" y="710.46" width="81.87" height="163.74" transform="translate(881.28 1584.65) rotate(180)"/><path d="M657.68,714.46v254h-254v-254h254m4-4h-262v262h262v-262Z"/></svg>