<svg id="Layer_1" data-name="Layer 1" xmlns="http://www.w3.org/2000/svg" viewBox="0 0 1024 1024"><defs><style>.cls-1{fill:#36c;}.cls-2{fill:#6f6;}.cls-3{fill:#baffba;}.cls-4{fill:#cff;fill-opacity:0.3;}.cls-5{fill:#ddd;}</style></defs><title>explore-icons</title><g id="space_unicorn_su_tail_0_Layer0_0_FILL" data-name="space unicorn su tail 0 Layer0 0 FILL"><path class="cls-1" d="M738,563.92v31.61l5.71-2.19a59.79,59.79,0,0,1,15.44-2.67q25.78-1.22,49.37,17,12.52,9.61,15.2,28.82,1.46,10,.36,38.79-1,27.24,2.07,42.68,4.62,23.83,20.06,40.49,28.94,31.13,69.67,12a112.26,112.26,0,0,0,34.9-25.41q-18.85,7.3-33.07,1.34-28.57-11.79-5.84-77.94,24.8-72-3.53-110.16-22.25-30.15-71.86-34.53-34.17-3-69.79,18.24a173.5,173.5,0,0,0-21,15Z"/></g><g id="space_unicorn_su_ear_0_Layer0_0_FILL" data-name="space unicorn su ear 0 Layer0 0 FILL"><path class="cls-2" d="M401.13,148.44A44.51,44.51,0,0,0,382.05,169q-12.91,28.58,10.44,75.75.73,1.38,1.46,2.84a366.22,366.22,0,0,0,28.29,45.07l8.34-10.52a106.13,106.13,0,0,0,6.19-10.9,94.1,94.1,0,0,0,5.43-13.47q.83-2.82,1.57-5.65,12.76-51.75-30.83-108.54A42.58,42.58,0,0,0,401.13,148.44Z"/></g><g id="space_unicorn_su_body_0_Layer0_0_FILL" data-name="space unicorn su body 0 Layer0 0 FILL"><path class="cls-3" d="M244.11,374.17a205.59,205.59,0,0,0-35.29-34.93L205.45,337q-.72.84-1.5,1.63-39.38,40.66-34.34,88.53t35.75,68.29q24.65,16.42,64.49,14.71a203,203,0,0,0,20.67-2Q289.23,430.9,244.11,374.17Z"/><path class="cls-2" d="M746.1,731.7,757.68,534.5l-261.41-4-59.4-259.23a106.12,106.12,0,0,1-6.19,10.9l-8.34,10.52a366.22,366.22,0,0,1-28.29-45.07q-.72-1.47-1.46-2.84l-6.26,1.65q-51,14.06-92.55,33.11-57,25.89-88.34,57.45l3.36,2.27a205.59,205.59,0,0,1,35.29,34.93q45.13,56.74,46.42,133.92a274.65,274.65,0,0,0,41-9.52,234.77,234.77,0,0,0,27.56-9.91L403.6,734.21Z"/></g><g id="space_unicorn_su_mane_0_Layer0_0_FILL" data-name="space unicorn su mane 0 Layer0 0 FILL"><path class="cls-1" d="M543.44,366.67q15.32.64,47.23-12.72,16-6.73,28.92-13.53-26.65,2.11-68.08-15.49a291.32,291.32,0,0,1-36.17-18.06q13.6,3,37.17-6a153.86,153.86,0,0,0,20.85-9.62q-21.49.75-66.81-14.45-22.66-7.55-41.07-15.35l11.79,197.34q45.33,6.4,105.61-4.32,30.19-5.41,51.22-12a204.35,204.35,0,0,1-70.53-11.69q-17-6-26.47-12.14,16.41,1.69,43-12.39a178.65,178.65,0,0,0,23.21-14.42q-17.59.61-40.43-12.19A134.93,134.93,0,0,1,543.44,366.67Z"/></g><g id="space_unicorn_su_helmet_0_Layer0_0_FILL" data-name="space unicorn su helmet 0 Layer0 0 FILL"><path class="cls-4" d="M238.79,281.78q-45.2,18.53-87.66,40.29Q125.76,376,142.87,432.35q20.24,66.7,88,97.61a197.14,197.14,0,0,0,41.63,13.76q23.56-6.82,47.49-15,120.2-40.64,135.59-80.14t-19.7-117.24a483.76,483.76,0,0,0-38.22-70Q369.82,228.1,238.79,281.78Z"/><path class="cls-5" d="M386.15,106.5q-11.83,9.39-19.43,26.93-15.18,35.16,5.87,75.66-46.29-8.19-96,6.91-39.11,11.87-68.38,34.55l-135-64.4,100,99.66q-6,7.86-11.42,16.5a179.47,179.47,0,0,0-10.65,19.77q42.47-21.76,87.66-40.29,131-53.67,158.87-20.39a483.76,483.76,0,0,1,38.22,70q35.12,77.84,19.7,117.24T320,528.77q-23.93,8.14-47.49,15,49,10.22,101.75-5.79Q449.87,515,489,451.63t18.91-130.05q-10.74-35.4-34.86-60.73-.64-10.76-7.65-33.16a389.09,389.09,0,0,0-18.92-48.26Q416.78,116.48,386.15,106.5Z"/></g><g id="space_unicorn_su_eye_open_0_Layer0_0_FILL" data-name="space unicorn su eye open 0 Layer0 0 FILL"><path d="M343.25,324.79q-4.72-9.25-11.52-9.25t-11.61,9.25q-4.72,9.34-4.72,22.5t4.72,22.41q4.81,9.34,11.61,9.34t11.52-9.34q4.81-9.25,4.81-22.41T343.25,324.79Z"/></g><g id="space_unicorn_su_upper_leg_0_Layer0_0_FILL" data-name="space unicorn su upper leg 0 Layer0 0 FILL"><path class="cls-2" d="M494.29,726A51.46,51.46,0,0,0,476.76,701q-25.55-20.65-66.09.71L389.57,816.4,391,821a22.87,22.87,0,0,0,6.58,9.1q14,12.12,44.2,4.05Z"/></g><g id="space_unicorn_su_lower_leg_0_Layer0_0_FILL" data-name="space unicorn su lower leg 0 Layer0 0 FILL"><path class="cls-2" d="M404.41,803.57a46.07,46.07,0,0,0-14.75,17.1L450,930.13l-5.46-121Q423.32,790.24,404.41,803.57Z"/></g><g id="space_unicorn_su_upper_leg_0_Layer0_0_FILL-2" data-name="space unicorn su upper leg 0 Layer0 0 FILL"><path class="cls-2" d="M466.69,697.64A51.46,51.46,0,0,0,456.2,669q-19.33-26.56-64-16.42l-50,105.28.16,4.77a22.87,22.87,0,0,0,4,10.5q10.34,15.32,41.64,15.35Z"/></g><g id="space_unicorn_su_lower_leg_0_Layer0_0_FILL-2" data-name="space unicorn su lower leg 0 Layer0 0 FILL"><path class="cls-2" d="M359.78,749.35A46.07,46.07,0,0,0,341.11,762l30,121.36,26-118.24Q381.5,741.36,359.78,749.35Z"/></g><g id="space_unicorn_su_upper_leg_0_Layer0_0_FILL-3" data-name="space unicorn su upper leg 0 Layer0 0 FILL"><path class="cls-2" d="M746.89,660.86a51.46,51.46,0,0,0-28.58-10.55q-32.75-2.49-54,38.11L712,794.76l3.74,3a22.86,22.86,0,0,0,10.59,3.76q18.37,2.05,38.68-21.76Z"/></g><g id="space_unicorn_su_lower_leg_0_Layer0_0_FILL-3" data-name="space unicorn su lower leg 0 Layer0 0 FILL"><path class="cls-2" d="M717,775.77a46.07,46.07,0,0,0-2.43,22.45L826.38,854,753.21,757.6Q725,754.06,717,775.77Z"/></g><g id="space_unicorn_su_upper_leg_0_Layer0_0_FILL-4" data-name="space unicorn su upper leg 0 Layer0 0 FILL"><path class="cls-2" d="M728.06,722.3a51.46,51.46,0,0,0-25.13-17.23q-31.15-10.44-61.69,23.72l20.24,114.79,2.9,3.8a22.86,22.86,0,0,0,9.34,6.24Q691,860.11,716.56,842Z"/></g><g id="space_unicorn_su_lower_leg_0_Layer0_0_FILL-4" data-name="space unicorn su lower leg 0 Layer0 0 FILL"><path class="cls-2" d="M670.91,826.39a46.07,46.07,0,0,0-7.85,21.17l94.76,81.52L710.5,817.64Q684,807.3,670.91,826.39Z"/></g></svg>